<svg id="图层_1" data-name="图层 1" xmlns="http://www.w3.org/2000/svg" viewBox="0 0 1261.81 172.01"><defs><style>.cls-1,.cls-2{stroke:#000;stroke-miterlimit:10;}.cls-2{stroke-width:2px;}</style></defs><title>ACALEPH</title><path class="cls-1" d="M6.52,141.45,39.84,51.78H1V48.16H45.17L9.95,142.78Zm35.22-7.62a8.79,8.79,0,0,1,6.47.19,3,3,0,0,1,1.14.76V9.52H53V75.77h.38l51.21,88-3.24,1.9L53,82.43v89.1l-23.8-38.08,3-1.9,4.57,7.23a.77.77,0,0,1,.19-.57A8.94,8.94,0,0,1,41.74,133.83Zm7.62,4.76a7.24,7.24,0,0,0-2.28-2.09,5.81,5.81,0,0,0-4.38-.19,5.88,5.88,0,0,0-3.24,3,3.79,3.79,0,0,0-.57,2.67L49.36,159Zm9.14-64.35L57.73,76a24.47,24.47,0,0,0-3.24-1.52l.57-1.71A20.34,20.34,0,0,1,58.49,74.25Zm6.28,4-1.14,1.52a23.92,23.92,0,0,0-2.86-2.09l1-1.52A14.75,14.75,0,0,1,64.78,78.24Zm5.71,4.57-1.14,1.33Q67.82,83,66.49,81.86l1.14-1.52ZM80,71Q67.82,69.87,66.68,57.68,67.82,45.5,80,44.36,92.19,45.5,93.33,57.68,92.19,69.87,80,71Zm0-24Q70.3,48,69.54,57.68,70.29,67.21,80,68.34q9.71-1.14,10.66-10.66Q89.71,48,80,47ZM74.49,89.1,72,86.62l1.14-1.33a16.54,16.54,0,0,0,2.67,2.47ZM77,91.76l1.33-1.14,2.28,2.67-1.33,1.14Zm6.47,8.57q-1.14-1.52-2.09-3l1.52-1q1,1.33,2.09,2.86Zm3.81,6.09q-1-1.71-1.9-3.24l1.52-1q1,1.53,1.9,3.24Zm1.71,3,1.71-.76a23.85,23.85,0,0,0,1.52,3.24l-1.52.76Q89.71,111,89,109.47Zm4.57,9.71q-.76-1.71-1.33-3.24l1.52-.76,1.52,3.43Zm2.67,6.66q-.76-1.71-1.33-3.24l1.71-.76q.57,1.71,1.33,3.43Zm2.09,6.85a34.14,34.14,0,0,1-1-3.43l1.71-.38a34.35,34.35,0,0,0,1,3.43Zm1.71,7q-.38-1.9-.76-3.43l1.71-.57q.38,1.71,1,3.62Zm1.52,7q-.38-1.9-.76-3.62l1.9-.19a31.17,31.17,0,0,0,.57,3.43Zm1.14,7a24.51,24.51,0,0,0-.57-3.43L104,150a12.58,12.58,0,0,0,.57,3.62Zm1,7.23a18.34,18.34,0,0,1-.38-3.62l1.71-.19q.19,1.71.38,3.62Z"/><path class="cls-1" d="M221.57,148.87V82.81H198V79.2h23.61V12.56h54.07V79.2h23.23v3.62H275.64v86.62H225.38v-3.62h46.45V148.87Zm3.62-132.69v63h46.64v-63Zm46.64,110V82.81H225.19v62.44h29.89v-19Zm-23.61-77.1a4.55,4.55,0,0,1,4.57,4.57,4.8,4.8,0,0,1-4.57,4.76q-4.38-.57-4.57-4.76Q243.84,49.5,248.22,49.12Zm0,62.25q-4.38-.57-4.57-4.57.19-4.38,4.57-4.76,4.19.38,4.57,4.76Q252.41,110.8,248.22,111.37Zm23.61,33.89V128.88H257.74v16.37Z"/><path class="cls-1" d="M391.5,111.56V4.76h25.7l-23.61,29.7H429v77.1ZM395.12,8.38V26.84L409.78,8.38Zm0,29.7v69.87h21.13V98.23h9.14V38.07ZM401,70.44V66.82h17.71v3.62ZM418,107.75h7v-7.61h-7Zm26.46-70.06-9.52,20.18-3.24-1.52L454.52,8l3.24,1.52L446.14,34.08h41.31V167.34H438.9v-3.62h44.93v-126ZM472,86.81a13.33,13.33,0,0,1-13.33,13.33,13,13,0,0,1-9.42-3.81,13.37,13.37,0,0,1,9.42-22.84,12.76,12.76,0,0,1,9.52,3.9A13,13,0,0,1,472,86.81Zm-24,0q.95,9.71,10.66,10.66,9.71-1,10.66-10.66-1-9.71-10.66-10.47Q449,77.1,448,86.81Z"/><path class="cls-1" d="M801.61,98.71l-2.86-2.28,46.07-58.06H807.89V34.74h19V6h3.62V34.74h21.89L824.26,70.15l20.56,26.27L842,98.71l-9.71-12.37q-2.86,7.24-10.47,7.61-7.81-.57-10.47-7.61Zm28.56-15L821.79,73l-8.38,10.47q1.14,7,8.38,7.81Q828.83,90.53,830.17,83.67Zm-10.28,84.72v-63.2h3.62v63.2Zm87.57-36.93V168.2H862.72V16.85h3.81V153.92h10.09v10.66h27.22V131.45Zm-32.75,24.18h-8.19v8.95h8.19Z"/><path class="cls-1" d="M1194.47,23.23l-16.18,32-3.24-1.71,28-55,3.24,1.71-9.9,19.42H1252v3.62h-29.51V46.45h23.42v3.62h-23.42V79.58h40.36v3.62h-40.36v82.05h-3.81V83.19h-41.31V79.58h20.75V46.45h20.56V23.23Zm24.18,56.35V50.07H1201.7V68.92h9.52V79.58Zm-9.14,0V70.82h-7.81v8.76Z"/><path class="cls-1" d="M582,156.58l-1.9.19V153l1.9.19v1.14A6.87,6.87,0,0,0,582,156.58Z"/><path class="cls-1" d="M582.56,145.92a16.51,16.51,0,0,0-.38,3.62l-1.9-.19q.19-1.71.38-3.62Z"/><path class="cls-1" d="M582.18,160.2a12.62,12.62,0,0,0,.57,3.62l-1.9.19q-.19-1.91-.38-3.62Z"/><path class="cls-1" d="M583.9,139.07a16.47,16.47,0,0,0-.76,3.43l-1.9-.38q.38-1.9.76-3.62Z"/><path class="cls-1" d="M602.36,103.85,619.88,46H582.56V42.36h42.07L607.31,99.85a22.93,22.93,0,0,0,2.47-2.47l1.33,1.33q-1.33,1.14-2.67,2.47L607.31,100l-20.18,66.82h119v3.62H582.18a27.46,27.46,0,0,1-.57-2.86l1.71-.38,18.85-62.44-.38-.38A1.24,1.24,0,0,1,602.36,103.85Z"/><path class="cls-1" d="M582.94,135.07a30.23,30.23,0,0,1,1.33-3.62l1.52.76a24.1,24.1,0,0,0-1,3.24Z"/><path class="cls-1" d="M585.61,128q.57-1.52,1.33-3.24l1.71.76a15.09,15.09,0,0,0-1.52,3.24Z"/><path class="cls-1" d="M591.89,119.08a25.67,25.67,0,0,0-1.71,3.24l-1.52-.76a25.53,25.53,0,0,1,1.71-3.24Z"/><path class="cls-1" d="M594.37,112l1.52,1.14a23.59,23.59,0,0,0-2.09,2.86l-1.52-1Q593.22,113.56,594.37,112Z"/><path class="cls-1" d="M613.4,14.09a12.54,12.54,0,0,0-9.33-3.9,12.76,12.76,0,0,0-9.52,3.9,13,13,0,0,0-3.81,9.42,12.67,12.67,0,0,0,3.81,9.33,13.57,13.57,0,0,0,9.52,4A13.66,13.66,0,0,0,617.4,23.51,13.73,13.73,0,0,0,613.4,14.09Zm-9.33,20.08q-9.9-1-10.66-10.66.76-9.9,10.66-10.66,9.52,1,10.47,10.66Q613.59,33.22,604.07,34.17Z"/><path class="cls-1" d="M598.93,106.33l1.33,1.14a16,16,0,0,0-2.28,2.86l-1.52-1.14A13.81,13.81,0,0,1,598.93,106.33Z"/><path class="cls-1" d="M613.59,95.85l-1.52-1.14q1.14-1.52,2.09-2.86L615.69,93A23.54,23.54,0,0,0,613.59,95.85Z"/><path class="cls-1" d="M616.26,88.81q.76-1.52,1.71-3l1.52.76a25.67,25.67,0,0,0-1.71,3.24Z"/><path class="cls-1" d="M622.35,79.86q-.76,1.71-1.33,3.43l-1.71-.76q.76-1.71,1.33-3.24Z"/><path class="cls-1" d="M624.44,72.82q-.38,1.71-1,3.62l-1.71-.57a22.08,22.08,0,0,1,1-3.43Z"/><path class="cls-1" d="M626,65.58q-.38,1.71-.76,3.62l-1.71-.38a30.87,30.87,0,0,1,.57-3.43Z"/><path class="cls-1" d="M624.83,47.5q-.19-1.9-.38-3.62l1.71-.19q.19,1.71.38,3.62Z"/><path class="cls-1" d="M626.73,58.35q-.19,1.71-.38,3.62l-1.71-.19a32.39,32.39,0,0,1,.19-3.62Z"/><path class="cls-1" d="M625,53.4V51.12l1.71-.19v3.81L625,54.54Z"/><path class="cls-2" d="M630.21,84l23.88-71.42L656.22,14,632.7,83.81l24.24,70.55-2,1.39Z"/><path class="cls-2" d="M654.81,84l23.88-71.42L680.81,14,657.29,83.81l24.24,70.55-2,1.39Z"/><path class="cls-2" d="M679.4,84l23.88-71.42L705.41,14,681.88,83.81l24.24,70.55-2,1.39Z"/><path d="M691.1,56.66l-2.3,5.84a33.41,33.41,0,0,1,4.92,7.62q6.45,20.87-6,34l2.13,5.41q7.51-6.89,9.74-19.1a44.62,44.62,0,0,0-1.92-23.69A30.39,30.39,0,0,0,691.1,56.66Z"/><path class="cls-1" d="M1032.41,130.1l-1-.77q.59-1,1.3-2.14l1.23.66Q1033.13,129,1032.41,130.1Z"/><path class="cls-1" d="M1035.21,125.57l-1-.59a15.66,15.66,0,0,1,1.06-2.34l1.17.53Q1035.87,124.34,1035.21,125.57Z"/><path class="cls-1" d="M1037.34,120.58l-1.11-.4.69-2.47,1.24.35Q1037.82,119.29,1037.34,120.58Z"/><path class="cls-1" d="M1038.73,115.33l-1.3-.16.32-2.61,1.3.16Z"/><path class="cls-1" d="M1037.94,110a17.94,17.94,0,0,1-.12-2.56l1.31-.15q0,1.25,0,2.74Z"/><path class="cls-1" d="M1038.35,102a25.14,25.14,0,0,0,.43,2.57l-1.25.28-.55-2.51Z"/><path class="cls-1" d="M1033,89.57l-1,.78q-.84-1.14-1.44-2.09l1-.91Q1032.18,88.43,1033,89.57Z"/><path class="cls-1" d="M1036.69,96.77l.92,2.64-1.25.28-.81-2.39Z"/><path class="cls-1" d="M1035.64,94.19l.06.13-1.26.59-.06-.13-1.06-2.27,1.14-.53A25,25,0,0,0,1035.64,94.19Z"/><path class="cls-1" d="M1035.09,5.28q-12.19,1.14-13.33,13.33,1.14,12.19,13.33,13.33,12.18-1.14,13.33-13.33Q1047.27,6.42,1035.09,5.28Zm0,24q-9.71-1.14-10.47-10.66.76-9.71,10.47-10.66,9.71,1,10.66,10.66Q1044.8,28.13,1035.09,29.27Z"/><polygon points="1010.6 112.15 1071.75 51 1072.44 50.24 1072.44 46.91 1000.1 46.91 1000.1 51.62 1064.48 51.62 1005.27 110.83 1003.31 112.81 1006.2 114.84 1006.24 114.84 1079.71 166.29 1082.41 162.44 1010.6 112.15"/></svg>