<svg xmlns="http://www.w3.org/2000/svg" viewBox="0 0 1073.72 149.54"><defs><style>.cls-1,.cls-2{stroke:#000;stroke-miterlimit:10;}.cls-2{stroke-width:2px;}</style></defs><title>水母的巡礼之年</title><g id="图层_2" data-name="图层 2"><g id="图层_1-2" data-name="图层 1"><path class="cls-1" d="M5.19,122.23,33.52,46H.5V42.92H38L8.11,123.36Zm29.94-6.47a7.48,7.48,0,0,1,5.5.16,2.55,2.55,0,0,1,1,.65V10.07h3.07V66.39H45l43.54,74.77-2.75,1.62L44.68,72.05V147.8L24.45,115.43,27,113.81,30.93,120a.66.66,0,0,1,.16-.49A7.6,7.6,0,0,1,35.14,115.75Zm6.47,4A6.15,6.15,0,0,0,39.67,118a4.94,4.94,0,0,0-3.72-.16,5,5,0,0,0-2.75,2.59,3.22,3.22,0,0,0-.49,2.27l8.9,14.4Zm7.77-54.7-.65,1.46A20.81,20.81,0,0,0,46,65.26l.49-1.46A17.29,17.29,0,0,1,49.38,65.09Zm5.34,3.4-1,1.29A20.33,20.33,0,0,0,51.32,68l.81-1.29A12.54,12.54,0,0,1,54.72,68.49Zm4.86,3.88-1,1.13q-1.3-1-2.43-1.94l1-1.29Zm8.09-10Q57.31,61.37,56.34,51q1-10.36,11.33-11.33Q78,40.66,79,51,78,61.37,67.67,62.34Zm0-20.39q-8.25.81-8.9,9.06.64,8.09,8.9,9.06,8.25-1,9.06-9.06Q75.92,42.76,67.67,42ZM63,77.72l-2.1-2.1,1-1.13a14.06,14.06,0,0,0,2.27,2.1ZM65.08,80l1.13-1,1.94,2.27-1.13,1Zm5.5,7.28q-1-1.29-1.78-2.59l1.29-.81Q70.9,85,71.87,86.3Zm3.24,5.18Q73,91,72.2,89.7l1.29-.81q.81,1.3,1.62,2.75ZM75.27,95l1.46-.65A20.27,20.27,0,0,0,78,97.14l-1.29.65Q75.92,96.33,75.27,95Zm3.88,8.25q-.65-1.46-1.13-2.75l1.29-.65,1.29,2.91ZM81.42,109q-.65-1.46-1.13-2.75l1.46-.65q.49,1.46,1.13,2.91Zm1.78,5.83a29,29,0,0,1-.81-2.91l1.46-.32a29.2,29.2,0,0,0,.81,2.91Zm1.46,6q-.33-1.62-.65-2.91l1.46-.49q.32,1.46.81,3.08Zm1.29,6q-.33-1.62-.65-3.08l1.62-.16a26.5,26.5,0,0,0,.49,2.91Zm1,6a20.84,20.84,0,0,0-.49-2.91l1.62-.32a10.7,10.7,0,0,0,.49,3.08Zm.81,6.15a15.59,15.59,0,0,1-.32-3.08l1.46-.16q.16,1.46.32,3.08Z"/><path class="cls-1" d="M188,128.54V72.38H167.95V69.3H188V12.66h46V69.3h19.75v3.07H234V146H191.25v-3.07h39.49v-14.4Zm3.08-112.81V69.3h39.65V15.73Zm39.65,93.55V72.38H191.09v53.09H216.5V109.28ZM210.67,43.73a3.87,3.87,0,0,1,3.88,3.88,4.08,4.08,0,0,1-3.88,4q-3.73-.49-3.88-4Q206.95,44.06,210.67,43.73Zm0,52.92q-3.73-.49-3.88-3.88a3.81,3.81,0,0,1,3.88-4q3.56.33,3.88,4A4,4,0,0,1,210.67,96.66Zm20.07,28.81V111.54h-12v13.92Z"/><path class="cls-1" d="M332.48,96.82V6h21.85L334.26,31.27h30.1V96.82ZM335.56,9.1v15.7L348,9.1Zm0,25.25v59.4h18V85.49h7.77V34.34Zm5,27.51V58.78h15.05v3.08ZM355,93.58h6V87.11h-6ZM377.47,34l-8.09,17.16-2.75-1.29L386.05,8.77l2.75,1.29-9.87,20.88h35.12V144.24H372.78v-3.08H411V34Zm23.47,41.76a11.33,11.33,0,0,1-11.33,11.33,11,11,0,0,1-8-3.24,11.37,11.37,0,0,1,8-19.42,10.85,10.85,0,0,1,8.09,3.32A11.06,11.06,0,0,1,400.94,75.78Zm-20.39,0q.81,8.25,9.06,9.06,8.25-.81,9.06-9.06-.81-8.25-9.06-8.9Q381.36,67.52,380.55,75.78Z"/><path class="cls-1" d="M681.13,85.89l-2.43-1.94,39.17-49.36h-31.4V31.51h16.18V7.07h3.08V31.51h18.61l-24,30.1,17.48,22.33-2.43,1.94-8.25-10.52a9.42,9.42,0,0,1-8.9,6.47q-6.64-.48-8.9-6.47Zm24.28-12.79L698.29,64l-7.12,8.9q1,6,7.12,6.64Q704.27,78.94,705.41,73.11Zm-8.74,72V91.39h3.08v53.73Zm74.45-31.4V145h-38V16.3h3.24V132.83h8.58v9.06H768V113.73Zm-27.84,20.55h-7v7.61h7Z"/><path class="cls-1" d="M1015.12,21.72l-13.76,27.19-2.75-1.46L1022.4.68l2.75,1.46-8.42,16.51H1064v3.08h-25.09V41.46h19.91v3.08h-19.91V69.63h34.31V72.7h-34.31v69.76h-3.24V72.7h-35.12V69.63h17.64V41.46h17.48V21.72Zm20.55,47.91V44.54h-14.4v16h8.09v9.06Zm-7.77,0V62.18h-6.64v7.45Z"/><path class="cls-1" d="M494.42,135.09l-1.62.16V132l1.62.16v1A5.84,5.84,0,0,0,494.42,135.09Z"/><path class="cls-1" d="M494.91,126a14,14,0,0,0-.32,3.08l-1.62-.16q.16-1.46.32-3.08Z"/><path class="cls-1" d="M494.59,138.17a10.73,10.73,0,0,0,.49,3.08l-1.62.16q-.16-1.62-.32-3.08Z"/><path class="cls-1" d="M496,120.2a14,14,0,0,0-.65,2.91l-1.62-.32q.32-1.62.65-3.08Z"/><path class="cls-1" d="M511.74,90.26l14.89-49.2H494.91V38h35.77L515.95,86.86a19.49,19.49,0,0,0,2.1-2.1l1.13,1.13q-1.13,1-2.27,2.1l-1-1-17.16,56.81H599.95v3.07H494.59a23.35,23.35,0,0,1-.49-2.43l1.46-.32,16-53.09-.32-.32A1.05,1.05,0,0,1,511.74,90.26Z"/><path class="cls-1" d="M495.23,116.81a25.7,25.7,0,0,1,1.13-3.08l1.29.65a20.49,20.49,0,0,0-.81,2.75Z"/><path class="cls-1" d="M497.5,110.82q.49-1.29,1.13-2.75l1.46.65a12.83,12.83,0,0,0-1.29,2.75Z"/><path class="cls-1" d="M502.84,103.21a21.82,21.82,0,0,0-1.46,2.75l-1.29-.65a21.7,21.7,0,0,1,1.46-2.75Z"/><path class="cls-1" d="M504.94,97.22l1.29,1a20.05,20.05,0,0,0-1.78,2.43l-1.29-.81Q504,98.52,504.94,97.22Z"/><path class="cls-1" d="M521.13,14a10.66,10.66,0,0,0-7.93-3.32A10.84,10.84,0,0,0,505.11,14a11,11,0,0,0-3.24,8,10.77,10.77,0,0,0,3.24,7.93,11.54,11.54,0,0,0,8.09,3.4A11.61,11.61,0,0,0,524.53,22,11.67,11.67,0,0,0,521.13,14ZM513.2,31q-8.42-.81-9.06-9.06.64-8.41,9.06-9.06,8.09.81,8.9,9.06Q521.29,30.22,513.2,31Z"/><path class="cls-1" d="M508.83,92.37l1.13,1A13.6,13.6,0,0,0,508,95.77l-1.29-1A11.74,11.74,0,0,1,508.83,92.37Z"/><path class="cls-1" d="M521.29,83.46l-1.29-1q1-1.29,1.78-2.43l1.29,1A20,20,0,0,0,521.29,83.46Z"/><path class="cls-1" d="M523.56,77.48q.64-1.29,1.46-2.59l1.29.65a21.82,21.82,0,0,0-1.46,2.75Z"/><path class="cls-1" d="M528.73,69.87q-.65,1.46-1.13,2.91l-1.46-.65q.64-1.46,1.13-2.75Z"/><path class="cls-1" d="M530.52,63.88q-.33,1.46-.81,3.07l-1.46-.49a18.78,18.78,0,0,1,.81-2.91Z"/><path class="cls-1" d="M531.81,57.73q-.33,1.46-.65,3.08l-1.46-.32a26.24,26.24,0,0,1,.49-2.91Z"/><path class="cls-1" d="M530.84,42.36q-.16-1.62-.32-3.08l1.46-.16q.16,1.46.32,3.08Z"/><path class="cls-1" d="M532.46,51.58q-.16,1.46-.32,3.08l-1.46-.16a27.54,27.54,0,0,1,.16-3.08Z"/><path class="cls-1" d="M531,47.37V45.43l1.46-.16v3.24L531,48.34Z"/><path class="cls-2" d="M535.42,87.68l20.3-41.41,1.81.8-20,40.5,20.6,40.91-1.71.8Z"/><path class="cls-2" d="M556.33,87.68l20.3-41.41,1.81.8-20,40.5L579,128.48l-1.71.8Z"/><path class="cls-2" d="M577.23,87.68l20.3-41.41,1.81.8-20,40.5,20.6,40.91-1.71.8Z"/><path d="M587.18,71.83l-2,3.38a20.53,20.53,0,0,1,4.18,4.42q5.49,12.1-5.09,19.72l1.81,3.14a18.63,18.63,0,0,0,6.65-24.81A18.8,18.8,0,0,0,587.18,71.83Z"/><path class="cls-1" d="M877.34,112.58l-.83-.66q.5-.89,1.11-1.82l1,.56Q878,111.65,877.34,112.58Z"/><path class="cls-1" d="M879.73,108.73l-.89-.5a13.31,13.31,0,0,1,.9-2l1,.45Q880.28,107.69,879.73,108.73Z"/><path class="cls-1" d="M881.54,104.49l-.94-.34.59-2.1,1.05.29Q881.94,103.39,881.54,104.49Z"/><path class="cls-1" d="M882.72,100l-1.11-.14.27-2.22,1.11.14Z"/><path class="cls-1" d="M882,95.5a15.25,15.25,0,0,1-.1-2.17l1.12-.13q0,1.06,0,2.33Z"/><path class="cls-1" d="M882.39,88.68a21.37,21.37,0,0,0,.36,2.18l-1.07.24L881.22,89Z"/><path class="cls-1" d="M877.86,78.12l-.87.66q-.72-1-1.22-1.78l.81-.77Q877.15,77.15,877.86,78.12Z"/><path class="cls-1" d="M881,84.24l.79,2.25-1.07.24-.69-2Z"/><path class="cls-1" d="M880.09,82l0,.11-1.07.5,0-.11-.9-1.93,1-.45A21.26,21.26,0,0,0,880.09,82Z"/><path class="cls-1" d="M879.62,6.46q-10.36,1-11.33,11.33,1,10.36,11.33,11.33Q890,28.15,891,17.79,890,7.44,879.62,6.46Zm0,20.39q-8.25-1-8.9-9.06.64-8.25,8.9-9.06,8.25.81,9.06,9.06Q887.87,25.89,879.62,26.86Z"/><polygon points="858.8 97.32 910.79 45.33 911.37 44.68 911.37 41.86 849.87 41.86 849.87 45.86 904.61 45.86 854.27 96.19 852.6 97.88 855.06 99.61 855.09 99.61 917.56 143.35 919.85 140.07 858.8 97.32"/></g></g></svg>