<svg xmlns="http://www.w3.org/2000/svg" viewBox="0 0 734.92 435.32"><defs><style>.cls-1,.cls-5,.cls-7,.cls-8{fill:#4a4a48;}.cls-1,.cls-10,.cls-11,.cls-12,.cls-13,.cls-14,.cls-15,.cls-2,.cls-3,.cls-4,.cls-5,.cls-6,.cls-8,.cls-9{stroke:#4a4a48;}.cls-1,.cls-10,.cls-11,.cls-12,.cls-13,.cls-14,.cls-15,.cls-2,.cls-5,.cls-6,.cls-8,.cls-9{stroke-miterlimit:10;}.cls-1{stroke-width:1.5px;}.cls-10,.cls-11,.cls-12,.cls-13,.cls-14,.cls-15,.cls-2,.cls-3,.cls-4,.cls-6,.cls-9{fill:none;}.cls-2{stroke-width:3px;opacity:0.52;}.cls-14,.cls-15,.cls-3,.cls-4{stroke-linecap:round;}.cls-3{stroke-linejoin:bevel;}.cls-3,.cls-4{stroke-width:2.5px;}.cls-4{stroke-linejoin:round;}.cls-6{stroke-width:2px;}.cls-15,.cls-8{stroke-width:0.5px;}.cls-10{stroke-dasharray:1.98 1.98;}.cls-11{stroke-dasharray:1.71 1.71;}.cls-12{stroke-dasharray:2 2;}.cls-13{stroke-dasharray:2.01 2.01;}.cls-14{stroke-width:0.75px;stroke-dasharray:2;}.cls-15{stroke-dasharray:1;}</style></defs><title>Acaleph_2</title><g id="图层_2" data-name="图层 2"><g id="图层_1-2" data-name="图层 1"><path class="cls-1" d="M195.32,89.37a1.64,1.64,0,0,1,.41-1.1,1.28,1.28,0,0,1,1-.47,1.45,1.45,0,0,1,1.07.47,1.52,1.52,0,0,1,.46,1.09v7.4h63.26v-7.4a1.51,1.51,0,0,1,.46-1.09,1.35,1.35,0,0,1,1-.47,1.44,1.44,0,0,1,1.07.47,1.54,1.54,0,0,1,.46,1.1v50.08h6.75a1.38,1.38,0,0,1,1.58,1.53,1.58,1.58,0,0,1-.42,1,1.45,1.45,0,0,1-1.16.49h-6.75v37.22a5.36,5.36,0,0,1-1.68,3.9,6.25,6.25,0,0,1-1.74,1.21,5,5,0,0,1-2.16.47H200.79a4.64,4.64,0,0,1-2.11-.47,8.47,8.47,0,0,1-1.79-1.21,5.78,5.78,0,0,1-1.58-3.9V142.51h-6.85a1.66,1.66,0,0,1-1.58-1.53,1.39,1.39,0,0,1,.47-1.15,1.72,1.72,0,0,1,1.11-.38h6.85Zm3,10.44v39.64h30.15V117a1.61,1.61,0,0,1,.42-1.11,1.35,1.35,0,0,1,1.05-.48,1.32,1.32,0,0,1,1.11.48,1.75,1.75,0,0,1,.37,1.11v22.46h30.15V99.81Zm31.63,66.53a1.35,1.35,0,0,1-1.05-.48,1.48,1.48,0,0,1-.42-1V142.51H198.27v37.22a2.93,2.93,0,0,0,.63,1.79,3,3,0,0,0,1.79.74H259a3.11,3.11,0,0,0,1.9-.74,2.94,2.94,0,0,0,.63-1.79V142.51H231.38v22.35a1.61,1.61,0,0,1-.37,1A1.32,1.32,0,0,1,229.9,166.33Z"/><path class="cls-1" d="M93.71,183.74a1.41,1.41,0,0,1-1-.47,1.52,1.52,0,0,1-.47-1.11,1.35,1.35,0,0,1,.47-1.05,1.49,1.49,0,0,1,1-.42h11.81a2.11,2.11,0,0,0,1.79-.84,1.93,1.93,0,0,0,.74-1.69V87.28a1.47,1.47,0,0,1,.47-1.16,1.5,1.5,0,0,1,1-.42q1.48,0,1.48,1.58v90.88a4.89,4.89,0,0,1-1.58,3.9,4.94,4.94,0,0,1-3.9,1.69Z"/><path class="cls-1" d="M150.74,175.31a1.45,1.45,0,0,1-.84,2,1.36,1.36,0,0,1-1.11-.05,1.45,1.45,0,0,1-.79-.79l-25.72-60a5.12,5.12,0,0,1-.42-2.11,5.62,5.62,0,0,1,.63-2.53,6.29,6.29,0,0,1,2-1.69,4.55,4.55,0,0,1,1.79-.32h22.77a1.62,1.62,0,0,1,1.11.42,1.47,1.47,0,0,1,.47,1.16,1.41,1.41,0,0,1-.47,1,1.52,1.52,0,0,1-1.11.47H126.28a1.11,1.11,0,0,0-.63.11,3,3,0,0,0-.63.53,1.77,1.77,0,0,1-.05.42,1.68,1.68,0,0,0-.05.42,3.18,3.18,0,0,0,.11.95Z"/><path class="cls-2" d="M77.71,115.08c-1.5-6.95-11.44-10.66-22.19-8.3"/><path class="cls-3" d="M84.83,118.12A23.67,23.67,0,0,0,55.59,101.6a23.93,23.93,0,0,0-16.12,29.64l0,.05c9.29,6.16,22.94,1.8,30.52-9.77"/><path class="cls-4" d="M42.29,136.74c9.29,6.16,22.94,1.8,30.52-9.77"/><path class="cls-4" d="M46.12,138.62c-1.06,12.1,4.67,22.47,12.8,23.18"/><path class="cls-4" d="M59.2,138.92c-1.42,16.18,8.31,30.23,21.75,31.4"/><path class="cls-4" d="M70,131.27c-1.06,12.1,4.67,22.47,12.8,23.18"/><path class="cls-4" d="M81.29,122.63c10.35,19.87,14.86,38,10.1,40.5"/><path class="cls-5" d="M344.08,166.58a25,25,0,0,1-17.91-7.49,25.4,25.4,0,0,1,0-35.86,25.45,25.45,0,0,1,35.82,0,25.38,25.38,0,0,1-10.37,42.17l-.51-1.52a23.21,23.21,0,0,0,12.11-8.64,23.58,23.58,0,0,0-2.12-30.61,22.85,22.85,0,0,0-16.17-7.16v49h-.85Zm-.76-49.11a23.72,23.72,0,0,0,0,47.42ZM345.68,159a17.94,17.94,0,0,0,12.74-5.38A18,18,0,0,0,345.68,123v-1.19a18.78,18.78,0,0,1,13.59,5.63,19,19,0,0,1,0,27.14,18.7,18.7,0,0,1-13.59,5.67Z"/><path class="cls-1" d="M335.75,273.34l2-3.46L336.42,266a5.78,5.78,0,0,1-.42-1.53,11.47,11.47,0,0,1-.11-1.53,8.77,8.77,0,0,1,.53-3.16L349.28,223v-.42a1.62,1.62,0,0,0-.42-1.11,1.36,1.36,0,0,0-1.05-.47,1.21,1.21,0,0,0-1.37.95l-12.86,36.9a11.83,11.83,0,0,0,0,8.22Z"/><path class="cls-1" d="M312.38,260.92a20.14,20.14,0,0,0,0,4.11,7.63,7.63,0,0,0,.53,2.06l10,28.54,2-3.44L315.75,266a5.73,5.73,0,0,1-.42-1.53,11.36,11.36,0,0,1-.11-1.53,8.75,8.75,0,0,1,.53-3.16L328.61,223v-.42a1.76,1.76,0,0,0-.37-1.11,1.32,1.32,0,0,0-1.11-.47,1.42,1.42,0,0,0-1.37.95l-12.86,36.9A7.65,7.65,0,0,0,312.38,260.92Z"/><path class="cls-1" d="M305.1,303.88a1.32,1.32,0,0,0,1.37,1.05,1.4,1.4,0,0,0,1.16-.53,1.69,1.69,0,0,0,.42-1.05v-.42L295.78,268l-1.95,3.37Z"/><path class="cls-1" d="M325.77,303.88a1.32,1.32,0,0,0,1.37,1.05,1.26,1.26,0,0,0,1.11-.53,1.83,1.83,0,0,0,.37-1.05v-.42l-1.23-3.53-2,3.43Z"/><path class="cls-1" d="M346.43,303.88a1.23,1.23,0,0,0,1.37,1.05,1.29,1.29,0,0,0,1.05-.53,1.69,1.69,0,0,0,.42-1.05v-.42l-9-25.85-2,3.46Z"/><path class="cls-1" d="M280.86,237.46A1.32,1.32,0,0,0,282,237a1.76,1.76,0,0,0,.37-1.11V220a1.61,1.61,0,0,0-.37-1,1.32,1.32,0,0,0-1.11-.48,1.65,1.65,0,0,0-1.48,1.48v15.92a1.52,1.52,0,0,0,.47,1.11A1.41,1.41,0,0,0,280.86,237.46Z"/><path class="cls-1" d="M297,254.25l11-31.23v-.42a1.62,1.62,0,0,0-.42-1.11,1.48,1.48,0,0,0-1.16-.47,1.42,1.42,0,0,0-1.37.95l-12.76,36.9a11.22,11.22,0,0,0-.74,4.11c0,.22,0,.43,0,.65Z"/><path class="cls-1" d="M268.2,251.17h8.65a2.4,2.4,0,0,1,1.84.74,2.55,2.55,0,0,1,.68,1.79v31.16l3-5.11v-26a5.59,5.59,0,0,0-1.53-4,5.17,5.17,0,0,0-4-1.63H268.2a1.62,1.62,0,0,0-1.58,1.58,1.41,1.41,0,0,0,.47,1A1.52,1.52,0,0,0,268.2,251.17Z"/><path class="cls-1" d="M313.49,311.9h-28.1a3.21,3.21,0,0,1-2.11-.79,2.67,2.67,0,0,1-.95-2.16V291.31l-3,5.11v12.52a6.12,6.12,0,0,0,6,6h26.33Z"/><path class="cls-1" d="M350.54,311.9H320.17L318.4,315h32.14a1.52,1.52,0,0,0,1.11-.47,1.42,1.42,0,0,0,.47-1,1.62,1.62,0,0,0-1.58-1.58Z"/><path class="cls-1" d="M528.13,233.46h8l1.77-3.06h-9.74a1.39,1.39,0,0,0-1,.49,1.48,1.48,0,0,0-.47,1,1.42,1.42,0,0,0,.47,1.09A1.46,1.46,0,0,0,528.13,233.46Z"/><path class="cls-1" d="M604.94,307.38a1.47,1.47,0,0,0-1-.44H565.22L563.45,310h40.48a1.47,1.47,0,0,0,1-.44,1.49,1.49,0,0,0,0-2.18Z"/><path class="cls-1" d="M545.42,301.88a33.71,33.71,0,0,0,4.43,3.9,19.79,19.79,0,0,0,7.32,3.54l1.59-2.76a16.21,16.21,0,0,1-2.16-.56,19.29,19.29,0,0,1-5.06-2.64,25,25,0,0,1-4.16-3.8,43.22,43.22,0,0,1-3.64-4.85l56.51-56.3a6.28,6.28,0,0,0,1.79-2.74,4.22,4.22,0,0,0-.21-2.63,3.65,3.65,0,0,0-1.69-1.9,5.16,5.16,0,0,0-2.64-.74H566.4V215a1.6,1.6,0,0,0-.42-1.1,1.42,1.42,0,0,0-2.11,0,1.6,1.6,0,0,0-.42,1.1v15.4h-18.9l-1.77,3.06H597.5a2,2,0,0,1,1.05.32,1.93,1.93,0,0,1,.53.53.7.7,0,0,1,0,.74,4.72,4.72,0,0,1-.84,1.37L525.5,308.84a1.25,1.25,0,0,0-.53,1,1.56,1.56,0,0,0,.53,1.11,1.25,1.25,0,0,0,1,.53,1.57,1.57,0,0,0,1.11-.53L541.52,297A40.34,40.34,0,0,0,545.42,301.88Z"/><path class="cls-1" d="M708,255.15l-1.76,3.06h21.49q1.48,0,1.48-1.53a1.57,1.57,0,0,0-.42-1,1.33,1.33,0,0,0-1.05-.49Z"/><path class="cls-1" d="M720,234.38H730.8a1.53,1.53,0,0,0,0-3.06h-9Z"/><path class="cls-1" d="M682.64,287.52H664.38V260.73a2.31,2.31,0,0,1,.74-1.68,2.53,2.53,0,0,1,1.79-.84h26.78v10.18l3-5.11v-5.07h2.93l1.76-3.06h-4.69V234.38h16.68l1.76-3.06H673.32l-1.76,3.06h22.13v20.77H666.91a4.64,4.64,0,0,0-2.11.47,8.48,8.48,0,0,0-1.79,1.21,5.66,5.66,0,0,0-1.58,3.79v26.88h-11.7a1.53,1.53,0,1,0,0,3.06h31.15Z"/><path class="cls-1" d="M657.37,234a6.19,6.19,0,0,0,2.16.37h5.35l1.76-3.06h-7.11a2.24,2.24,0,0,1-1.79-.73,2.4,2.4,0,0,1-.74-1.78v-7.94a1.34,1.34,0,0,0-.48-1,1.5,1.5,0,0,0-1-.42,1.3,1.3,0,0,0-1.48,1.48v8a4.88,4.88,0,0,0,1.58,3.9A4.2,4.2,0,0,0,657.37,234Z"/><path class="cls-1" d="M733.7,288a1.59,1.59,0,0,0-1.11-.44h-36V274.85l-3,5.11v7.56h-4.36l-1.77,3.06h6.13v26.67a1.48,1.48,0,1,0,3,0V290.58h36a1.71,1.71,0,0,0,1.11-.38,1.38,1.38,0,0,0,.47-1.15A1.42,1.42,0,0,0,733.7,288Z"/><path class="cls-1" d="M403.76,262.51a1.42,1.42,0,0,0-1-.42,1.53,1.53,0,0,0-1.07.42,1.37,1.37,0,0,0-.46,1.05v33.36l3-5.11V263.57A1.38,1.38,0,0,0,403.76,262.51Z"/><path class="cls-1" d="M448.31,215.45a1.87,1.87,0,0,0-.81-.17,1.52,1.52,0,0,0-1,.37,1.33,1.33,0,0,0-.46,1.11v2.56Z"/><path class="cls-1" d="M417.19,280.92v31.25a1.3,1.3,0,0,0,1.48,1.48,1.5,1.5,0,0,0,1-.42,1.35,1.35,0,0,0,.47-1.05V275.81Z"/><path class="cls-1" d="M399.58,246.81h17.61v22.55l3-5.11V246.81h10.07l1.77-3.06H399.58a1.41,1.41,0,0,0-1,.48,1.51,1.51,0,0,0-.47,1.11,1.35,1.35,0,0,0,.47,1.05A1.48,1.48,0,0,0,399.58,246.81Z"/><path class="cls-1" d="M459.72,311.64l1.76-3.06h-10a2.11,2.11,0,0,1-1.69-.74,2.23,2.23,0,0,1-.74-1.79V225.78l-3,5.11v75.27a5.12,5.12,0,0,0,.46,2.16,6.18,6.18,0,0,0,1.17,1.74,5,5,0,0,0,3.75,1.58Z"/><path class="cls-1" d="M480.76,308.59H468.17l-1.76,3.06h14.36a1.33,1.33,0,0,0,1.48-1.53,1.57,1.57,0,0,0-.42-1A1.33,1.33,0,0,0,480.76,308.59Z"/><path class="cls-1" d="M434.48,262.09a1.3,1.3,0,0,0-1.48,1.48v37.32a1.49,1.49,0,0,0,.42,1,1.41,1.41,0,0,0,2.11,0,1.49,1.49,0,0,0,.42-1V263.57A1.3,1.3,0,0,0,434.48,262.09Z"/><path class="cls-1" d="M438.49,244l-1.6,2.77h.76a1.61,1.61,0,0,0,1.11-.42,1.35,1.35,0,0,0,.47-1.05,1.51,1.51,0,0,0-.47-1.11A1.63,1.63,0,0,0,438.49,244Z"/><polyline class="cls-6" points="417.24 233.97 425.73 233.94 434.17 209.61 425.7 218.32 417.17 201 408.72 218.38 400.22 209.74 408.75 234 417.24 233.97"/><circle class="cls-7" cx="437.73" cy="203.83" r="1.91"/><circle class="cls-7" cx="417.19" cy="197.85" r="1.91"/><circle class="cls-7" cx="396.77" cy="204.13" r="1.91"/><path class="cls-8" d="M130.33,49.19H118.12l-3.45,7.68-.78-.36,10.32-23.08,10.35,23.08-.78.36Zm-11.82-.88h11.43l-5.73-12.76Zm3.16,5h5.11v.85h-5.11Zm3.58-8.46-1,1-1.33-1.33,1.33-1.33,1.37,1.33Z"/><path class="cls-8" d="M149.21,44.41h5.14v.88h-5.14Zm20.05,7a8.09,8.09,0,0,1-1.63,2.34,10,10,0,0,1-2.25,1.69,11.25,11.25,0,0,1-2.6,1,10.61,10.61,0,0,1-2.7.36,9.28,9.28,0,0,1-3.43-.63,10.27,10.27,0,0,1-2.91-1.74,12.31,12.31,0,0,1-2.28-2.57A12.17,12.17,0,0,1,150,48.8a8.26,8.26,0,0,1-.26-.86,8.86,8.86,0,0,1-.16-.89l.85-.13a9.54,9.54,0,0,0,1.06,3.4,11.31,11.31,0,0,0,2.18,2.91,10.45,10.45,0,0,0,3,2,8.37,8.37,0,0,0,3.48.75,9.75,9.75,0,0,0,2.46-.33,10.57,10.57,0,0,0,2.39-.94A9.2,9.2,0,0,0,167,53.19a7.09,7.09,0,0,0,1.48-2.12Zm-19.66-9,.16-.59a12.86,12.86,0,0,1,1.37-3.19,11.39,11.39,0,0,1,2.23-2.7,10.17,10.17,0,0,1,3-1.86,10.34,10.34,0,0,1,3.84-.68,9.34,9.34,0,0,1,5.24,1.43,8.76,8.76,0,0,1,3.22,3.68l-.78.36a7.93,7.93,0,0,0-2.9-3.3,8.51,8.51,0,0,0-4.78-1.29,9.41,9.41,0,0,0-6.36,2.34,10.21,10.21,0,0,0-2.05,2.47,12,12,0,0,0-1.25,2.93l-.13.55Zm20.31,3.06-1,1-1.37-1.37,1.37-1.33,1.33,1.33Z"/><path class="cls-8" d="M201.29,49.19H189.08l-3.45,7.68-.78-.36,10.32-23.08,10.35,23.08-.78.36Zm-11.82-.88H200.9l-5.73-12.76Zm3.16,5h5.11v.85h-5.11Zm3.58-8.46-1,1-1.33-1.33,1.33-1.33,1.37,1.33Z"/><path class="cls-8" d="M220.17,45.94V33.44H221V56h14.58v.91H220.17ZM224.53,52l1,1.07-1.37,1.4-1.4-1.4,1.4-1.4Zm3,.62h5.31v.91h-5.31Z"/><path class="cls-8" d="M265.41,56.87H250.28V33.44h14.84v.88h-14V56h14.26ZM258,45.68h-5.18V44.8H258Zm2.47.62-1-1.07,1.33-1.37,1.37,1.37-1.37,1.37Z"/><path class="cls-8" d="M280.06,56.87V33.44h9.8a6.05,6.05,0,0,1,3.55,1.09,7.51,7.51,0,0,1,2.41,2.72l-.78.42a6.6,6.6,0,0,0-2.1-2.38,5.24,5.24,0,0,0-3.08-.94H281V47.4h9.11a5.05,5.05,0,0,0,2.77-.76,6.05,6.05,0,0,0,2-2l.78.46a7.14,7.14,0,0,1-2.29,2.33,5.93,5.93,0,0,1-3.21.86H281v8.59ZM286.93,44V38.64h.88V44Zm9.31-3.74,1.07,1.07-1.4,1.4-1.37-1.4,1.37-1.37Z"/><path class="cls-8" d="M317.62,46h-4.75v10.9H312V33.6h.91V45.06h4.75Zm3.74-1.69,1.07,1.07-1.4,1.4-1.43-1.4L321,44Zm9-10.68V56.87h-.91V46h-4.75v-.91h4.75V33.6Z"/><line class="cls-9" x1="78.93" y1="41.3" x2="97.53" y2="41.3"/><line class="cls-9" x1="78.93" y1="46.73" x2="97.53" y2="46.73"/><line class="cls-9" x1="346.72" y1="41.3" x2="365.31" y2="41.3"/><line class="cls-9" x1="346.72" y1="46.73" x2="365.31" y2="46.73"/><line class="cls-9" x1="297.34" y1="349.22" x2="297.84" y2="348.36"/><line class="cls-10" x1="298.83" y1="346.64" x2="383.67" y2="199.7"/><line class="cls-9" x1="384.16" y1="198.84" x2="384.66" y2="197.97"/><polyline class="cls-9" points="276.28 355.19 275.53 354.53 276.51 354.34"/><line class="cls-11" x1="278.19" y1="354" x2="284.06" y2="352.83"/><polyline class="cls-9" points="284.89 352.67 285.88 352.47 286.27 351.55"/><line class="cls-11" x1="286.95" y1="349.98" x2="289.31" y2="344.49"/><polyline class="cls-9" points="289.65 343.7 290.04 342.78 290.53 343.65"/><line class="cls-11" x1="291.37" y1="345.15" x2="294.29" y2="350.37"/><polyline class="cls-9" points="294.71 351.11 295.2 351.98 296.19 352.07"/><line class="cls-11" x1="297.9" y1="352.23" x2="303.86" y2="352.78"/><polyline class="cls-9" points="304.71 352.86 305.7 352.95 305.02 353.69"/><line class="cls-11" x1="303.86" y1="354.94" x2="299.8" y2="359.34"/><polyline class="cls-9" points="299.22 359.96 298.54 360.7 298.76 361.68"/><line class="cls-11" x1="299.14" y1="363.34" x2="300.46" y2="369.18"/><polyline class="cls-9" points="300.65 370.01 300.87 370.99 299.96 370.57"/><line class="cls-11" x1="298.41" y1="369.85" x2="292.97" y2="367.35"/><polyline class="cls-9" points="292.2 366.99 291.29 366.57 290.43 367.09"/><line class="cls-11" x1="288.96" y1="367.96" x2="283.82" y2="371.02"/><polyline class="cls-9" points="283.08 371.45 282.22 371.97 282.34 370.97"/><line class="cls-11" x1="282.54" y1="369.27" x2="283.24" y2="363.33"/><polyline class="cls-9" points="283.34 362.48 283.46 361.49 282.71 360.83"/><line class="cls-11" x1="281.42" y1="359.7" x2="276.92" y2="355.76"/><line class="cls-9" x1="341.09" y1="411.63" x2="341.59" y2="410.76"/><line class="cls-12" x1="342.59" y1="409.03" x2="531.91" y2="81.11"/><line class="cls-9" x1="532.41" y1="80.25" x2="532.91" y2="79.38"/><polyline class="cls-9" points="320.04 417.6 319.29 416.94 320.27 416.74"/><line class="cls-11" x1="321.94" y1="416.41" x2="327.81" y2="415.24"/><polyline class="cls-9" points="328.65 415.07 329.63 414.88 330.03 413.96"/><line class="cls-11" x1="330.7" y1="412.39" x2="333.07" y2="406.89"/><polyline class="cls-9" points="333.4 406.1 333.8 405.19 334.29 406.06"/><line class="cls-11" x1="335.12" y1="407.55" x2="338.05" y2="412.77"/><polyline class="cls-9" points="338.47 413.51 338.95 414.39 339.95 414.48"/><line class="cls-11" x1="341.65" y1="414.64" x2="347.61" y2="415.18"/><polyline class="cls-9" points="348.46 415.26 349.46 415.36 348.78 416.09"/><line class="cls-11" x1="347.62" y1="417.35" x2="343.56" y2="421.74"/><polyline class="cls-9" points="342.98 422.37 342.3 423.1 342.52 424.08"/><line class="cls-11" x1="342.9" y1="425.75" x2="344.22" y2="431.58"/><polyline class="cls-9" points="344.4 432.42 344.63 433.39 343.72 432.97"/><line class="cls-11" x1="342.16" y1="432.26" x2="336.73" y2="429.75"/><polyline class="cls-9" points="335.95 429.4 335.05 428.98 334.19 429.49"/><line class="cls-11" x1="332.72" y1="430.36" x2="327.57" y2="433.42"/><polyline class="cls-9" points="326.84 433.86 325.98 434.37 326.1 433.38"/><line class="cls-11" x1="326.3" y1="431.68" x2="327" y2="425.74"/><polyline class="cls-9" points="327.1 424.89 327.21 423.89 326.46 423.23"/><line class="cls-11" x1="325.18" y1="422.11" x2="320.68" y2="418.16"/><line class="cls-9" x1="454.86" y1="383.63" x2="455.36" y2="382.77"/><line class="cls-13" x1="456.37" y1="381.02" x2="572.47" y2="179.93"/><line class="cls-9" x1="572.97" y1="179.06" x2="573.47" y2="178.19"/><polyline class="cls-9" points="433.81 389.6 433.06 388.94 434.04 388.74"/><line class="cls-11" x1="435.71" y1="388.41" x2="441.58" y2="387.24"/><polyline class="cls-9" points="442.42 387.07 443.4 386.88 443.8 385.96"/><line class="cls-11" x1="444.47" y1="384.39" x2="446.84" y2="378.89"/><polyline class="cls-9" points="447.17 378.11 447.57 377.19 448.06 378.06"/><line class="cls-11" x1="448.89" y1="379.55" x2="451.82" y2="384.77"/><polyline class="cls-9" points="452.24 385.52 452.73 386.39 453.72 386.48"/><line class="cls-11" x1="455.42" y1="386.64" x2="461.38" y2="387.19"/><polyline class="cls-9" points="462.23 387.27 463.23 387.36 462.55 388.09"/><line class="cls-11" x1="461.39" y1="389.35" x2="457.33" y2="393.74"/><polyline class="cls-9" points="456.75 394.37 456.07 395.11 456.29 396.08"/><line class="cls-11" x1="456.67" y1="397.75" x2="457.99" y2="403.59"/><polyline class="cls-9" points="458.18 404.42 458.4 405.39 457.49 404.98"/><line class="cls-11" x1="455.94" y1="404.26" x2="450.5" y2="401.76"/><polyline class="cls-9" points="449.72 401.4 448.82 400.98 447.96 401.49"/><line class="cls-11" x1="446.49" y1="402.37" x2="441.34" y2="405.42"/><polyline class="cls-9" points="440.61 405.86 439.75 406.37 439.87 405.38"/><line class="cls-11" x1="440.07" y1="403.68" x2="440.77" y2="397.74"/><polyline class="cls-9" points="440.87 396.89 440.99 395.9 440.23 395.24"/><line class="cls-11" x1="438.95" y1="394.11" x2="434.45" y2="390.16"/><polygon class="cls-14" points="23.64 38.46 29.25 55.3 46.09 60.91 29.25 66.53 23.64 83.37 18.03 66.53 1.19 60.91 18.03 55.3 23.64 38.46"/><polygon class="cls-15" points="52.91 0.79 55.42 8.31 62.94 10.82 55.42 13.33 52.91 20.85 50.4 13.33 42.88 10.82 50.4 8.31 52.91 0.79"/></g></g></svg>