<svg xmlns="http://www.w3.org/2000/svg" viewBox="0 0 282.26 184.85"><defs><style>.cls-1{fill:#4a4a48;}</style></defs><title>资源 10</title><g id="图层_2" data-name="图层 2"><g id="图层_1-2" data-name="图层 1"><path class="cls-1" d="M13,184.13,9,160.29.46,165.2,0,164.4l9.67-5.58L13.92,184ZM19.75,178a2.22,2.22,0,0,1,1.44-.78.76.76,0,0,1,.35,0L5.7,149.83l.79-.46,8.38,14.51.08,0,22.33,12.79-.47.83-21.11-12.1L27,184.85l-10-5.33.43-.8,1.92,1a.2.2,0,0,1,0-.15A2.26,2.26,0,0,1,19.75,178Zm2.27.08a1.83,1.83,0,0,0-.77-.17,1.47,1.47,0,0,0-1,.51,1.49,1.49,0,0,0-.32,1.08,1,1,0,0,0,.21.66l4.43,2.39Zm-6.13-15.25,0,.47a6.19,6.19,0,0,0-.9.08l-.09-.45A5.14,5.14,0,0,1,15.89,162.85Zm1.88.08-.06.48a6,6,0,0,0-.89-.1l0-.45A3.73,3.73,0,0,1,17.77,162.93Zm1.83.28-.08.44q-.48-.06-.91-.14l.06-.48Zm.59-3.79a3.37,3.37,0,1,1,1.23-4.6A3.37,3.37,0,0,1,20.19,159.42Zm-3-5.25a2.65,2.65,0,0,0-.94,3.66,2.69,2.69,0,0,0,3.64,1,2.75,2.75,0,0,0,1-3.68A2.71,2.71,0,0,0,17.16,154.17Zm4.11,9.91-.85-.23.08-.44a4.18,4.18,0,0,0,.9.2Zm.88.27.15-.42.84.29-.15.42Zm2.5,1.06q-.44-.19-.84-.4l.21-.4.82.36Zm1.6.85-.83-.47.21-.4.83.47Zm.76.45.28-.38a6,6,0,0,0,.74.52l-.24.36Zm2.23,1.55q-.38-.28-.7-.54l.24-.36.77.56Zm1.43,1.12q-.38-.28-.7-.54l.28-.38q.34.3.72.58ZM32,170.61a8.63,8.63,0,0,1-.64-.63l.33-.3a8.68,8.68,0,0,0,.64.63Zm1.27,1.33-.6-.65.3-.34q.3.33.67.67Zm1.22,1.35-.62-.7.39-.28a7.88,7.88,0,0,0,.56.68Zm1.14,1.4a6.2,6.2,0,0,0-.56-.68l.37-.32a3.18,3.18,0,0,0,.58.72Zm1.12,1.46a4.64,4.64,0,0,1-.54-.74l.35-.26.54.74Z"/><path class="cls-1" d="M61,158.57l-8.35-14.47-5.17,3-.46-.79,5.17-3L43.8,128.72l11.84-6.84,8.42,14.59,5.09-2.94.46.79-5.09,2.94,7.68,13.3,3.27,5.67-11,6.35L64,161.8l10.17-5.87L72,152.22ZM45,129.06l8,13.8L63.23,137l-8-13.8Zm24.12,18.2-5.49-9.5-10.21,5.9,7.89,13.67,6.54-3.78-2.41-4.17Zm-14.92-13.9a1.15,1.15,0,0,1,1.58.42,1.21,1.21,0,0,1-.4,1.62,1.17,1.17,0,0,1-1.6-.46A1.11,1.11,0,0,1,54.26,133.36ZM62.13,147a1.15,1.15,0,0,1-1.58-.42,1.13,1.13,0,0,1,.4-1.62,1.17,1.17,0,0,1,1.6.46A1.19,1.19,0,0,1,62.13,147Zm9.45,4.44-2.07-3.59-3.08,1.78,2.07,3.59Z"/><path class="cls-1" d="M93.52,128.92l-9.41-16.3L80,105.53l5.63-3.25-1.41,9.49L92,107.29l9.75,16.88ZM81.27,105.87l2.33,4,.88-5.9Zm3.75,6.5,8.83,15.3L98.49,125l-1.23-2.13,2-1.16-7.61-13.17Zm5.38,6.34-.46-.79,3.88-2.24.46.79Zm8.43,6,1.54-.89-1-1.67-1.54.89Zm-3.06-18.69.47,5.62-.9.08L94.23,98.27l.9-.08.56,6.85,9-5.22L121.59,129,111,135.14l-.46-.79,9.84-5.68-15.93-27.6ZM108,113.32a3.37,3.37,0,0,1-1.23,4.6,3.28,3.28,0,0,1-2.54.36,3.39,3.39,0,0,1,1.75-6.54A3.29,3.29,0,0,1,108,113.32Zm-5.25,3a2.7,2.7,0,1,0,4.67-2.7,2.7,2.7,0,0,0-4.67,2.7Z"/><path class="cls-1" d="M181.7,74.26l-.91-.14,2.75-18.54-8.09,4.67-.46-.79L179.16,57l-3.63-6.29.79-.46L180,56.59l4.79-2.77-1.69,11.32,7.82,3.15-.34.86-3.69-1.48a2.78,2.78,0,0,1-4.59,2.65Zm4.35-6.9-3.18-1.28-.51,3.35a2.17,2.17,0,0,0,2.82.65A2.2,2.2,0,0,0,186.05,67.35Zm8.46,19.85-8-13.84.79-.46,8,13.84ZM209,68l4.65,8-9.8,5.66L184.73,48.6l.83-.48,17.33,30,2.21-1.28,1.35,2.33,6-3.44-4.19-7.25Zm-4.11,9.43-1.79,1,1.13,2,1.79-1Z"/><path class="cls-1" d="M258.18,8.06l.5,9-.93,0-.83-15.59.93,0,.29,5.5,12.17-7,.46.79-6.46,3.73,2.94,5.09,5.13-3,.46.79-5.13,3,3.73,6.46,8.84-5.1.46.79-8.84,5.1,10.37,18-.83.48-10.37-18-9,5.22-.46-.79,4.54-2.62-4.19-7.25,4.5-2.6L263.48,5Zm12.42,9.28-3.73-6.46L263.16,13l2.38,4.13,2.08-1.2L269,18.28Zm-2,1.16-1.11-1.92-1.71,1,1.11,1.92Z"/><path class="cls-1" d="M140.93,114.69l-.39.28-.31-.54-.17-.29.44-.2.14.25A1.74,1.74,0,0,0,140.93,114.69Z"/><path class="cls-1" d="M139.7,112.29a4.17,4.17,0,0,0,.37.84l-.44.2-.37-.84Z"/><path class="cls-1" d="M141.43,115.46a3.19,3.19,0,0,0,.58.72l-.39.28-.54-.74Z"/><path class="cls-1" d="M139.13,110.62a4.17,4.17,0,0,0,.27.85l-.47.16q-.16-.46-.29-.89Z"/><path class="cls-1" d="M138.72,100.57l-3.48-14.89-8.17,4.72-.46-.79,9.21-5.32,3.48,14.78a5.8,5.8,0,0,0,.23-.85l.46.12q-.15.42-.27.88l-.39-.11,4,17.18,26.05-15,.46.79-27.1,15.64,0,0a6.94,6.94,0,0,1-.49-.55l.33-.3L138.8,100.8l-.13,0A.31.31,0,0,1,138.72,100.57Z"/><path class="cls-1" d="M138.42,109.86a7.64,7.64,0,0,1-.17-1l.43,0a6.09,6.09,0,0,0,.2.83Z"/><path class="cls-1" d="M138.11,108q-.07-.41-.12-.88l.47-.05a3.82,3.82,0,0,0,.08.9Z"/><path class="cls-1" d="M138.35,105.23a6.49,6.49,0,0,0,0,.93l-.43,0a6.45,6.45,0,0,1,0-.93Z"/><path class="cls-1" d="M138,103.37l.48.06a6,6,0,0,0-.1.89l-.45,0Q137.95,103.85,138,103.37Z"/><path class="cls-1" d="M129.79,79.52a3.17,3.17,0,0,0-2.54.32,3.23,3.23,0,0,0-1.59,2.06,3.29,3.29,0,0,0,.36,2.54A3.2,3.2,0,0,0,128,86a3.43,3.43,0,0,0,2.59-.33,3.45,3.45,0,0,0,1.23-4.6A3.47,3.47,0,0,0,129.79,79.52Zm.5,5.58a2.67,2.67,0,0,1-3.68-1,2.63,2.63,0,0,1,1-3.68,2.7,2.7,0,0,1,2.7,4.67Z"/><path class="cls-1" d="M138.28,101.55l.44.08a4,4,0,0,0-.14.91l-.48-.06A3.49,3.49,0,0,1,138.28,101.55Z"/><path class="cls-1" d="M140.17,97.4l-.48-.06q.06-.48.1-.89l.48.06A6,6,0,0,0,140.17,97.4Z"/><path class="cls-1" d="M139.86,95.52q0-.43,0-.88l.43,0a6.49,6.49,0,0,0,0,.93Z"/><path class="cls-1" d="M140.07,92.79q0,.47.14.92l-.47,0c0-.31-.07-.61-.12-.88Z"/><path class="cls-1" d="M139.63,91q.13.42.25.91l-.45.09a5.58,5.58,0,0,1-.22-.87Z"/><path class="cls-1" d="M139.05,89.21q.13.42.29.89l-.42.13a7.81,7.81,0,0,1-.31-.82Z"/><path class="cls-1" d="M136.52,85.39l-.54-.74.35-.26.54.74Z"/><path class="cls-1" d="M138.3,87.53l.37.84-.4.18a8.19,8.19,0,0,1-.42-.82Z"/><path class="cls-1" d="M137.3,86.66l-.29-.5.35-.26.31.54.17.29-.4.17Z"/><path class="cls-1" d="M142.31,92.7,138.51,74l.64,0,3.68,18.27,14.23,12.39-.26.56Z"/><path class="cls-1" d="M147.69,89.59l-3.8-18.66.64,0,3.68,18.27,14.23,12.39-.26.56Z"/><path class="cls-1" d="M153.08,86.48l-3.8-18.66.64,0,3.68,18.27,14.23,12.39-.26.56Z"/><path class="cls-1" d="M152.19,79l.24,1.57a8.45,8.45,0,0,1,2,1q4.05,3.75,3,8.21l1.15.92a8.36,8.36,0,0,0-.28-5.41,11.28,11.28,0,0,0-3.42-4.94A7.68,7.68,0,0,0,152.19,79Z"/><path class="cls-1" d="M236.21,52l-.31,0q0-.3,0-.63h.35Q236.23,51.62,236.21,52Z"/><path class="cls-1" d="M236.25,50.61h-.3a4,4,0,0,1-.06-.65l.32,0Q236.24,50.25,236.25,50.61Z"/><path class="cls-1" d="M236.08,49.24l-.29.05-.16-.63.31-.08Q236,48.9,236.08,49.24Z"/><path class="cls-1" d="M235.72,47.92l-.31.13-.26-.61.31-.13Z"/><path class="cls-1" d="M234.88,46.85a4.54,4.54,0,0,1-.35-.55l.27-.2q.15.28.36.59Z"/><path class="cls-1" d="M234,45a6.36,6.36,0,0,0,.42.51l-.24.22-.44-.48Z"/><path class="cls-1" d="M231.22,43l-.12.3-.58-.28.1-.32Q230.89,42.86,231.22,43Z"/><path class="cls-1" d="M232.93,44.11l.54.46-.24.22-.48-.42Z"/><path class="cls-1" d="M232.37,43.68l0,0-.2.29,0,0-.52-.36.18-.26A6.32,6.32,0,0,0,232.37,43.68Z"/><path class="cls-1" d="M221,24.28a3.37,3.37,0,1,0,4.6,1.23A3.37,3.37,0,0,0,221,24.28Zm3,5.25a2.69,2.69,0,0,1-3.64-1,2.65,2.65,0,0,1,.94-3.66,2.71,2.71,0,0,1,3.68,1A2.75,2.75,0,0,1,224,29.53Z"/><polygon class="cls-1" points="229.16 50.78 234.82 29.66 234.88 29.4 234.46 28.68 218.62 37.82 219.21 38.85 233.31 30.71 227.83 51.16 227.65 51.84 228.54 51.92 228.55 51.92 251.14 53.9 251.25 52.71 229.16 50.78"/></g></g></svg>